<?xml version="1.0" encoding="UTF-8"?>
<!DOCTYPE svg PUBLIC "-//W3C//DTD SVG 1.1//EN" "http://www.w3.org/Graphics/SVG/1.1/DTD/svg11.dtd">
<!-- Creator: CorelDRAW -->
<svg xmlns="http://www.w3.org/2000/svg" xml:space="preserve" width="3.54331in" height="3.54331in" style="shape-rendering:geometricPrecision; text-rendering:geometricPrecision; image-rendering:optimizeQuality; fill-rule:evenodd; clip-rule:evenodd"
viewBox="0 0 3.54331 3.54331"
 xmlns:xlink="http://www.w3.org/1999/xlink">
 <defs>
  <style type="text/css">
   <![CDATA[
    .fil1 {fill:#1F1A17}
    .fil2 {fill:white;fill-rule:nonzero}
    .fil0 {fill:url(#id0)}
   ]]>
  </style>
  <radialGradient id="id0" gradientUnits="userSpaceOnUse" cx="1.73891" cy="1.92543" r="2.0318" fx="1.73891" fy="1.92543">
   <stop offset="0" style="stop-color:#DD137B"/>
   <stop offset="1" style="stop-color:#974578"/>
  </radialGradient>
 </defs>
 <g id="Layer_x0020_1">
  <metadata id="CorelCorpID_0Corel-Layer"/>
  <g id="_73820640">
   <path id="_73542368" class="fil0" d="M1.71194 0.792677c0.625492,-0.0148937 1.14482,0.480287 1.15971,1.10578 0.0148937,0.625496 -0.480287,1.14482 -1.10578,1.15972 -0.625492,0.0148898 -1.14482,-0.480287 -1.15971,-1.10578 -0.0148898,-0.625492 0.480287,-1.14482 1.10578,-1.15971z"/>
   <path id="_73819680" class="fil1" d="M2.37245 0.874772l0.00924803 0.00101575 0.0527598 -0.744047 0.0147717 0.00162992 -0.052748 0.744059 0.00924803 0.00101575 -0.0376496 0.531012 0.00790551 0.000874016 -0.0376575 0.531004 0.0079252 0.000870079 -0.0245197 0.345815 -0.0440709 -0.00526772 -0.00200787 0.0167047 0.0448858 0.00537008 -0.00225591 0.031811 -0.0298031 -0.00356299 -0.00200787 0.0167126 0.030626 0.00365748 -0.0085 0.119772 0.00790945 0.000854331 -0.00761024 0.107299 -0.063378 -0.0075748 -0.00200787 0.0167047 0.0642008 0.00767717 -0.00293701 0.0414173 -0.0578583 -0.00691732 -0.00200394 0.0167047 0.0586654 0.00701969 -0.00293701 0.0414134 -0.0523228 -0.00625984 -0.00200787 0.0167047 0.0531417 0.0063622 -0.0237992 0.335571c-0.0274606,0.0125 -0.0553858,0.0240118 -0.0837874,0.0345394l0.0439252 -0.619559 0.00790945 0.000870079 0.0376496 -0.531004 0.00789764 0.00088189 0.0376614 -0.531008 0.00789764 0.00088189 0.0376417 -0.531024zm-0.291102 2.24524l-0.0236811 -0.407181 0.00637795 -0.00080315 -0.0309016 -0.53128 0.00638583 -0.000795276 -0.0309055 -0.531276 0.00637402 -0.00080315 -0.0308976 -0.531272 0.00744488 -0.000937008 -0.0432953 -0.744425 0.0119134 -0.00150394 0.0433031 0.744425 0.00744882 -0.000929134 0.0309134 0.531276 0.00637008 -0.00080315 0.0309055 0.531272 0.00637795 -0.000795276 0.0309055 0.531268 0.00637795 -0.000799213 0.0230551 0.39624c-0.0212559,0.00696063 -0.0427638,0.0133071 -0.0644724,0.019122zm-1.01892 -2.52115l0.0220551 -0.00222047 0.073689 0.578004 0.00525197 -0.000527559 0.0554213 0.43478 -0.00805512 0.00135039 0.00279528 0.0166024 0.0073937 -0.00124803 0.00524409 0.0411693 -0.0140315 0.00235827 0.00279134 0.0165984 0.013374 -0.00225197 0.00524409 0.0411654 -0.02 0.00336614 0.00279134 0.0166024 0.0193425 -0.00325591 0.00137402 0.0107795 0.00524409 -0.000531496 0.073689 0.578008 0.00524409 -0.000531496 0.100268 0.786567c-0.0189803,-0.00535433 -0.0377874,-0.0111102 -0.0564173,-0.0173268l-0.0675669 -0.529961 0.039248 -0.00659449 -0.00279134 -0.0165984 -0.0385827 0.00648819 -0.00525197 -0.0411693 0.0452244 -0.0076063 -0.00279134 -0.0165945 -0.0445591 0.00749606 -0.00525197 -0.0411654 0.0512047 -0.00861811 -0.00279528 -0.0165906 -0.0505354 0.00849606 -0.0129291 -0.101433 0.00524409 -0.000531496 -0.073689 -0.578004 0.00524409 -0.000531496 -0.073689 -0.578004 0.00524409 -0.000531496 -0.073685 -0.578004z"/>
   <path id="_73542224" class="fil1" d="M2.10379 1.70682c-0.126677,-0.529028 -0.263268,-0.956173 -0.326705,-1.03195 0.0714685,0.169626 0.176689,0.521252 0.275843,0.935339 0.0945827,0.395 0.159941,0.747854 0.179157,0.947323l0.0374291 -0.015811c-0.0284646,-0.206256 -0.0869606,-0.505961 -0.165724,-0.834902z"/>
   <path id="_73542152" class="fil1" d="M2.04461 2.60193c-0.0720197,-0.263831 -0.17052,-0.502602 -0.234098,-0.574394 0.059378,0.107756 0.131969,0.298894 0.188339,0.505398 0.0537756,0.196988 0.079315,0.358598 0.0729055,0.43665l0.046311 0.0230512c-0.00347638,-0.0871575 -0.0286772,-0.226661 -0.0734567,-0.390705z"/>
   <path id="_73542080" class="fil1" d="M2.45159 1.96124c0.129142,-0.13663 0.273209,-0.248094 0.344236,-0.269185 -0.0771929,0.0448425 -0.187409,0.136362 -0.288496,0.243303 -0.0964252,0.102016 -0.160378,0.1925 -0.175965,0.243059l-0.043937 -0.00270079c0.0260827,-0.0525669 0.0838583,-0.129524 0.164161,-0.214476z"/>
   <path id="_73542008" class="fil1" d="M1.09469 2.2028c-0.150429,-0.100382 -0.316394,-0.180528 -0.396693,-0.19372 0.0882559,0.031378 0.215508,0.0975472 0.33326,0.176118 0.112319,0.0749488 0.187843,0.142402 0.207535,0.181l0.0489606 -0.00408268c-0.0315118,-0.039685 -0.0995236,-0.0969016 -0.193063,-0.159315z"/>
   <path id="_73541936" class="fil1" d="M1.39552 2.34476c0.0554764,-0.404524 0.134118,-0.736752 0.18674,-0.802102 -0.0482205,0.134752 -0.105835,0.407063 -0.149256,0.723693 -0.0414252,0.302035 -0.0595551,0.568713 -0.052315,0.716571l-0.0389961 -0.00535039c0.000992126,-0.154291 0.0193346,-0.381287 0.0538268,-0.632811z"/>
   <path id="_73541864" class="fil1" d="M2.57109 1.68775l0.0218031 -0.0861299 -0.0496772 0.0736614c-0.0273228,0.0405118 -0.0594882,0.112417 -0.0714803,0.159787l-0.0218071 0.0861299 0.0496772 -0.0736614c0.0273228,-0.0405118 0.0594921,-0.112417 0.0714843,-0.159787z"/>
   <path id="_73541792" class="fil1" d="M2.81121 1.50361l0.0218071 -0.086126 -0.0496772 0.0736575c-0.0273228,0.0405157 -0.0594921,0.112417 -0.0714843,0.159787l-0.0218031 0.0861299 0.0496772 -0.0736614c0.0273228,-0.0405118 0.0594882,-0.112413 0.0714803,-0.159787z"/>
   <path id="_73541720" class="fil1" d="M1.81315 1.278l-0.0285748 -0.0938504 0.0586654 0.0786339c0.0322638,0.043248 0.0715197,0.120866 0.0872362,0.172484l0.0285748 0.0938504 -0.0586654 -0.0786299c-0.0322638,-0.043248 -0.0715197,-0.120866 -0.0872362,-0.172488z"/>
   <path id="_73541648" class="fil1" d="M0.940756 1.88382l-0.020311 -0.0984882 0.0524528 0.0857953c0.0288504,0.047185 0.0615945,0.13011 0.0727598,0.184276l0.0203071 0.0984843 -0.0524488 -0.0857913c-0.0288543,-0.047189 -0.0615945,-0.13011 -0.0727598,-0.184276z"/>
   <path id="_73541576" class="fil1" d="M0.831827 1.90828l-0.0121654 -0.059 0.0314252 0.0513976c0.0172795,0.0282677 0.0368976,0.0779488 0.0435906,0.110402l0.0121654 0.059 -0.0314252 -0.0513976c-0.0172835,-0.0282677 -0.0368976,-0.0779488 -0.0435906,-0.110402z"/>
   <path id="_73541504" class="fil1" d="M0.608087 1.8275l-0.019685 -0.0588228 0.0525276 0.0508976c0.0288898,0.0279921 0.0613819,0.0773661 0.0722087,0.10972l0.019685 0.0588228 -0.0525236 -0.0508937c-0.0288898,-0.0279961 -0.0613858,-0.0773701 -0.0722126,-0.109724z"/>
   <path id="_73479200" class="fil1" d="M0.95035 2.38315l-0.00984646 0.0627205 0.0305 -0.0556811c0.0167756,-0.030626 0.0349331,-0.0839055 0.0403504,-0.118402l0.00984646 -0.0627165 -0.0305 0.0556811c-0.0167756,0.030622 -0.0349331,0.0839016 -0.0403504,0.118398z"/>
   <path id="_73479128" class="fil1" d="M0.837575 2.20743l-0.00589764 0.0375748 0.0182717 -0.0333583c0.0100512,-0.0183465 0.0209291,-0.0502677 0.0241732,-0.070937l0.00590157 -0.0375748 -0.0182717 0.0333622c-0.0100551,0.0183465 -0.0209331,0.0502677 -0.0241772,0.0709331z"/>
   <path id="_73479056" class="fil1" d="M1.7212 1.28977l-0.0389685 -0.0569134 0.055937 0.0403583c0.0307677,0.0221969 0.0734764,0.0659685 0.0949094,0.0972756l0.0389724 0.0569134 -0.0559409 -0.0403583c-0.0307677,-0.0221969 -0.0734724,-0.0659724 -0.0949094,-0.0972756z"/>
   <path id="_73478984" class="fil1" d="M2.53838 2.1879l-0.112492 -0.088311 0.135752 0.0450079c0.0746654,0.0247559 0.18637,0.084748 0.248244,0.133323l0.112492 0.088311 -0.135752 -0.0450079c-0.0746614,-0.0247559 -0.18637,-0.084752 -0.248244,-0.133323z"/>
   <path id="_73478912" class="fil1" d="M2.72805 1.84694l-0.0664528 -0.0521693 0.080189 0.0265866c0.0441063,0.014626 0.110094,0.0500669 0.146642,0.0787598l0.0664528 0.0521654 -0.0801929 -0.0265866c-0.0441024,-0.014622 -0.110091,-0.050063 -0.146638,-0.0787559z"/>
   <path id="_73478840" class="fil1" d="M1.68276 1.38459l-0.0771654 -0.0605787 0.0931181 0.030874c0.0512165,0.0169803 0.127843,0.0581378 0.170283,0.0914567l0.0771654 0.0605787 -0.0931181 -0.030874c-0.0512165,-0.0169803 -0.127843,-0.0581378 -0.170283,-0.0914567z"/>
   <path id="_73478768" class="fil2" d="M1.81502 1.7854c0.00130709,0.0030315 0.00246063,0.00622441 0.0034685,0.0095748 0.00100787,0.00334646 0.00156299,0.00685827 0.00165748,0.0105394 0.000692913,0.00305118 0.00108661,0.00625984 0.00117323,0.00963386 9.05512e-005,0.00337008 0.00015748,0.00597638 0.000204724,0.0078189 0.000129921,0.00490551 9.84252e-005,0.00965748 -8.66142e-005,0.0142677 -0.000185039,0.0046063 -0.000519685,0.00937008 -0.00100787,0.0142913 -0.001,0.00861811 -0.00231496,0.0169331 -0.00394488,0.0249528 -0.00163386,0.00801969 -0.00355906,0.0163543 -0.00579134,0.025 -0.00957087,0.0327717 -0.0219685,0.0631614 -0.037189,0.0911732 -0.0152165,0.0280118 -0.0313898,0.0548189 -0.0485118,0.0804252 -0.0177244,0.0262323 -0.0363976,0.0511102 -0.0560315,0.0746378 -0.0196339,0.0235197 -0.0398898,0.0466024 -0.0607717,0.0692402 -0.0417835,0.0446575 -0.0850079,0.0868976 -0.129677,0.126724 -0.0446693,0.0398268 -0.090437,0.0787598 -0.137299,0.116803 -0.0300512,0.0240984 -0.058315,0.0460118 -0.0847953,0.0657244 -0.0264843,0.0197126 -0.0496654,0.0365827 -0.0695433,0.0506024 -0.0198819,0.0140197 -0.0361535,0.0251811 -0.0488268,0.0334921 -0.0126654,0.00830709 -0.0199016,0.0131024 -0.0217087,0.014374 -0.00255118,-0.00361417 -0.00177953,-0.00931102 0.00231102,-0.0170906 0.00409055,-0.00777559 0.0104567,-0.0165315 0.0191024,-0.0262677 0.00864173,-0.00973622 0.0189528,-0.0201299 0.0309331,-0.0311811 0.0119843,-0.0110512 0.0242717,-0.0222638 0.0368543,-0.0336417 0.0125866,-0.011374 0.0250315,-0.022437 0.0373307,-0.033189 0.0122953,-0.010752 0.0232441,-0.0202402 0.0328465,-0.0284724 0.00960236,-0.00822835 0.0174055,-0.014874 0.0234094,-0.0199409 0.00600394,-0.00506693 0.00899606,-0.00790551 0.00898031,-0.00851575 0.0450236,-0.0379961 0.088937,-0.0773425 0.131744,-0.118039 0.0428031,-0.0407008 0.0835591,-0.0836417 0.12226,-0.128835 0.0196693,-0.0219921 0.0385591,-0.0445748 0.0566693,-0.067748 0.0181063,-0.0231811 0.035126,-0.0469409 0.0510551,-0.0712874 0.015315,-0.0243307 0.0293858,-0.0493976 0.0422087,-0.0751969 0.0128228,-0.0257992 0.0231654,-0.0526102 0.0310276,-0.0804252 0.00105118,-0.00677953 0.00225591,-0.0134055 0.00362205,-0.0198819 0.00136614,-0.00648031 0.00226378,-0.0130984 0.00270079,-0.0198622 0.000433071,-0.00675984 0.000574803,-0.0132087 0.000413386,-0.0193386 -0.000161417,-0.00612992 -0.000893701,-0.0107126 -0.00220079,-0.013748 -0.00327165,-0.00788976 -0.00976772,-0.0156969 -0.0194803,-0.0234173 -0.0097126,-0.00772441 -0.0204764,-0.0145 -0.0322874,-0.0203268 -0.024248,-0.012248 -0.0501339,-0.0224646 -0.0776496,-0.0306378 -0.0275197,-0.00817717 -0.0551654,-0.0152756 -0.082937,-0.0212992 -0.0289921,-0.00598819 -0.0578228,-0.0115236 -0.0864882,-0.0166024 -0.0286654,-0.00507874 -0.0577756,-0.00968504 -0.0873386,-0.0138189 -0.000137795,0.0650433 2.75591e-005,0.129925 0.000496063,0.194646 0.000468504,0.0647244 2.75591e-005,0.129929 -0.0013189,0.195618 -0.000519685,0.0270079 -0.00146457,0.0495866 -0.00283071,0.0677244 -0.00136614,0.0181339 -0.00232283,0.028437 -0.00287402,0.0309055 -0.00984252,-0.000972441 -0.0173465,-0.00644882 -0.0225157,-0.0164409 -0.00516929,-0.00998425 -0.00914567,-0.0210787 -0.0119173,-0.0332795 -0.00282283,-0.0140394 -0.00507874,-0.0299331 -0.00677165,-0.0476811 -0.00481496,-0.0667559 -0.0105472,-0.133331 -0.0171929,-0.199732 -0.00664961,-0.0664016 -0.0130039,-0.133272 -0.0190591,-0.200606 -0.0147677,-0.00145276 -0.029685,-0.00290551 -0.0447559,-0.00435039 -0.0150669,-0.00144882 -0.0302835,-0.00258268 -0.0456496,-0.00340551 -0.0129213,-0.0015 -0.0226457,-0.00385827 -0.0291732,-0.00705906 -0.00652362,-0.00320472 -0.0109252,-0.00707874 -0.013189,-0.0116181 -0.00226772,-0.00454724 -0.00255512,-0.00960236 -0.000858268,-0.0151654 0.00169685,-0.00556693 0.00431102,-0.0111575 0.00784252,-0.0167717 0.00414961,-0.00563386 0.00876378,-0.0109685 0.0138504,-0.0160118 0.00508268,-0.00503937 0.0100276,-0.00946457 0.0148386,-0.0132717 0.00540551,-0.00443701 0.010811,-0.00887795 0.0162165,-0.013311 0.012311,0.00151575 0.0244685,0.00303937 0.0364764,0.00456693 0.0120039,0.00152756 0.0241614,0.00305118 0.0364724,0.00456693l-9.44882e-005 -0.00367717c0.000370079,-0.00921654 0.00529528,-0.0144055 0.0147756,-0.0155748 0.00948031,-0.00116929 0.0200866,-0.000370079 0.0318189,0.00238583 0.0135669,0.00271654 0.0287362,0.00783858 0.0455,0.015378l0.000362205 0.0137953c0.0320433,0.00529528 0.0641063,0.0112087 0.096185,0.0177323 0.0320748,0.00652362 0.0638622,0.0136654 0.0953583,0.0214331 0.0296575,0.00781102 0.059185,0.0165512 0.0885827,0.0262126 0.0293976,0.00965748 0.0590315,0.0223819 0.0888976,0.0381654 0.00748425,0.0047126 0.0149724,0.00942913 0.0224567,0.0141417 0.00748819,0.0047126 0.0149961,0.0103425 0.0225315,0.0168937 0.0069252,0.00657087 0.0140197,0.0139016 0.0212835,0.0219921 0.00727165,0.00809449 0.0132205,0.0185236 0.0178504,0.0312874zm-0.00348031 0.148272c-0.000129921,-0.00490551 0.00394488,-0.00746457 0.0122244,-0.0076811 0.00827559,-0.000216535 0.0176457,0.000149606 0.0280984,0.00110236 0.0117008,0.00153543 0.0255669,0.00393307 0.0416063,0.00719291l-0.004 0.233882c-0.000905512,0.0122992 -0.00140551,0.0224331 -0.00150394,0.0304134 -9.84252e-005,0.00798031 -0.000444882,0.0122835 -0.00104331,0.0129134 -0.00858268,0.000224409 -0.0152402,-0.00205906 -0.0199685,-0.00683858 -0.00472441,-0.00478346 -0.00869291,-0.00989764 -0.0119055,-0.0153386 -0.00324016,-0.00666142 -0.00557874,-0.0139646 -0.00701575,-0.0219016l-0.0364921 -0.233744zm0.0803898 -0.058248c0.000177165,0.00674409 0.000173228,0.0125748 -3.93701e-006,0.0174843 -0.000177165,0.00491732 -0.000870079,0.00769685 -0.00208268,0.00834252 -0.00858661,0.000224409 -0.0152126,-0.000984252 -0.0198819,-0.00362205 -0.00467323,-0.0026378 -0.00858268,-0.00545276 -0.0117244,-0.00843701 -0.00316142,-0.00359843 -0.00572835,-0.00782677 -0.00769685,-0.0126811l-0.0437953 -0.12587c-6.29921e-005,-0.00245276 0.00403937,-0.00394094 0.012311,-0.00446063 0.00826772,-0.000527559 0.017622,-0.00061811 0.028063,-0.000275591 0.0116654,0.000307087 0.0254961,0.00116929 0.0414882,0.00259449l0.00332283 0.126925zm0.0919528 0.348256c-0.0091811,0.000858268 -0.0163583,-0.00370866 -0.0215276,-0.0137008 -0.00516929,-0.00998819 -0.00929134,-0.0209252 -0.0123622,-0.0328071 -0.0030748,-0.0118858 -0.00489764,-0.0228858 -0.0054685,-0.0329921 -0.000570866,-0.0101102 -0.000854331,-0.0151654 -0.000854331,-0.0151654l-0.0290512 -0.511894c0.000354331,-0.00982283 0.00511811,-0.0153189 0.0142913,-0.0164803 0.00917323,-0.00115748 0.0190118,-0.00034252 0.0295197,0.00244882 0.0123425,0.00274803 0.0265866,0.00789764 0.0427402,0.0154449l-0.0142717 0.50935c-0.000507874,0.027626 -0.000988189,0.050185 -0.00145276,0.067685 -0.00046063,0.0175 -0.000980315,0.0268701 -0.00156299,0.0281102zm0.0355197 -0.295449c-0.000125984,-0.00490551 0.00394488,-0.00746457 0.0122244,-0.00768504 0.00827953,-0.000216535 0.0176457,0.000153543 0.0281024,0.00110236 0.0116969,0.00153937 0.0255669,0.00393701 0.0416063,0.00719685l-0.004 0.233882c-0.000909449,0.0122953 -0.00140551,0.0224331 -0.00150787,0.0304094 -9.84252e-005,0.00798031 -0.000444882,0.0122835 -0.00104331,0.0129134 -0.00858268,0.000224409 -0.0152402,-0.00205512 -0.0199646,-0.00683858 -0.00472835,-0.00478346 -0.00869685,-0.00989764 -0.0119094,-0.0153346 -0.00324016,-0.00666535 -0.00557874,-0.0139685 -0.00701575,-0.0219055l-0.0364921 -0.23374zm0.0803898 -0.058248c0.000177165,0.00674409 0.000173228,0.0125748 0,0.0174843 -0.000181102,0.00491732 -0.000874016,0.00769291 -0.00208268,0.00833858 -0.00858661,0.000224409 -0.0152165,-0.000980315 -0.0198858,-0.00362205 -0.00466929,-0.0026378 -0.00857874,-0.00545276 -0.0117244,-0.00843307 -0.00316142,-0.00360236 -0.00572835,-0.00782677 -0.00769685,-0.012685l-0.0437913 -0.125866c-6.29921e-005,-0.00245276 0.00403543,-0.00394094 0.0123071,-0.00446457 0.00827165,-0.000523622 0.017626,-0.00061811 0.028063,-0.000275591 0.0116654,0.000307087 0.0254961,0.00117323 0.0414882,0.00259843l0.00332283 0.126925z"/>
   <path id="_73478624" class="fil1" d="M1.08844 3.15628l0.0380236 0.0156575c-0.00432283,0.0132992 -0.00464961,0.0245472 -0.001,0.0337953 0.00362992,0.00917717 0.0110512,0.0168031 0.0223543,0.022811 0.0119449,0.00635433 0.0223228,0.00862992 0.0310669,0.00674409 0.00876378,-0.0018189 0.0149449,-0.00611024 0.0185433,-0.012874 0.0023189,-0.00436614 0.00299606,-0.00873228 0.00203937,-0.0131378 -0.000885827,-0.0044252 -0.0039252,-0.00944488 -0.00912205,-0.015063 -0.00350394,-0.00384252 -0.0120236,-0.0117795 -0.0254291,-0.0238465 -0.0172913,-0.0155079 -0.0280118,-0.0290079 -0.0321969,-0.0404567 -0.00592913,-0.0161102 -0.00502362,-0.0314449 0.00271654,-0.0460039 0.00498425,-0.00937402 0.0122795,-0.0166969 0.021937,-0.0220512 0.00963386,-0.00531102 0.0205984,-0.00744094 0.0328504,-0.00642126 0.0122717,0.00109055 0.0254409,0.00534646 0.039563,0.0128583 0.0231181,0.0122913 0.0377717,0.0265591 0.0440866,0.042874 0.00625197,0.0163425 0.00520079,0.0330827 -0.00318898,0.050311l-0.0379843 -0.0181102c0.00344882,-0.0103031 0.00364173,-0.0189331 0.000602362,-0.025815 -0.00301181,-0.00693307 -0.00975591,-0.0131496 -0.0202008,-0.0187047 -0.0107874,-0.00573622 -0.0204252,-0.00805906 -0.0288701,-0.00684252 -0.00544094,0.000732283 -0.00943701,0.00349606 -0.0119646,0.00824803 -0.0023189,0.00436614 -0.00246063,0.00907087 -0.00042126,0.0141102 0.0025748,0.00642126 0.0117795,0.0165866 0.0275906,0.0304291 0.0157913,0.0138858 0.0267992,0.0253937 0.0330394,0.0345315 0.00620866,0.00917717 0.00967323,0.0189843 0.0103819,0.0295197 0.000673228,0.0105157 -0.0020748,0.0215748 -0.00824409,0.0331772 -0.00560236,0.0105315 -0.0137717,0.018874 -0.0245039,0.0249134 -0.0107638,0.00608661 -0.0226654,0.00854331 -0.0357362,0.00730709 -0.0130945,-0.00119685 -0.0276339,-0.0060748 -0.0436024,-0.014563 -0.0232441,-0.0123583 -0.038252,-0.0272047 -0.0449961,-0.0445748 -0.00674409,-0.0173661 -0.0058622,-0.0369961 0.00266535,-0.0588228zm0.272984 0.192898l0.047685 -0.166299 -0.059378 -0.0170236 0.00971654 -0.0338819 0.159067 0.0456102 -0.0097126 0.0338819 -0.0592402 -0.0169843 -0.0476811 0.166295 -0.0404567 -0.0115984zm0.223374 -0.157476l0.041878 0.00366535 -0.00983071 0.112346c-0.00155906,0.0178228 -0.00203937,0.0294606 -0.00148819,0.034815 0.00104331,0.00865748 0.00474803,0.0158465 0.0110118,0.0215551 0.00631102,0.00575984 0.015315,0.00912205 0.0270039,0.0101457 0.011878,0.00103937 0.0210748,-0.000590551 0.0275394,-0.00493701 0.00646063,-0.00430315 0.0106063,-0.00997638 0.0124331,-0.0169213 0.00187795,-0.00699213 0.00348031,-0.0186772 0.00491732,-0.0351024l0.0100433 -0.11476 0.041878 0.00366535 -0.00953543 0.108965c-0.0021811,0.0249252 -0.00483071,0.0424094 -0.008,0.0524961 -0.00316929,0.0100906 -0.00807874,0.018374 -0.0147874,0.0249409 -0.00670472,0.00651969 -0.0153583,0.0114567 -0.0258701,0.0147717 -0.010563,0.00331102 -0.0240709,0.00422047 -0.0404961,0.00278346 -0.0198031,-0.00173228 -0.034626,-0.00531496 -0.0444646,-0.0107992 -0.00983858,-0.00548425 -0.0173858,-0.0121339 -0.022689,-0.0199449 -0.00530315,-0.00781496 -0.00854331,-0.0158346 -0.00972441,-0.0240197 -0.0017126,-0.012122 -0.00153543,-0.0297717 0.0005,-0.0530079l0.0096811 -0.110657zm0.243803 0.0110315l0.0761024 -0.0106969c0.0171417,-0.00240945 0.0303819,-0.00294882 0.0397795,-0.0015748 0.0125984,0.00185039 0.0238622,0.00673228 0.0337402,0.0146496 0.00991732,0.00785827 0.0180591,0.0180748 0.0244213,0.0305945 0.00632283,0.0125748 0.0108583,0.0284843 0.0135787,0.0478346 0.00238189,0.0169528 0.00232677,0.0318937 -0.000169291,0.0447756 -0.00303543,0.0157047 -0.00867323,0.0288858 -0.0169724,0.0395 -0.00620866,0.00806693 -0.015189,0.0149134 -0.0269252,0.0205787 -0.00876378,0.00421654 -0.0208504,0.00738583 -0.0362638,0.00955118l-0.0783071 0.0110039 -0.0289843 -0.206217zm0.0465315 0.0290551l0.0191929 0.136551 0.0310669 -0.00436614c0.0116142,-0.00163386 0.0199331,-0.00343701 0.0249291,-0.00551181 0.00648425,-0.00262598 0.0117047,-0.00624803 0.0156024,-0.0109094 0.00390157,-0.00466142 0.00656299,-0.0118386 0.00809843,-0.0214567 0.00149213,-0.00961024 0.00115748,-0.022437 -0.00108268,-0.038378 -0.00224016,-0.0159409 -0.00539764,-0.027937 -0.00938189,-0.0360906 -0.00403543,-0.00814961 -0.00890945,-0.0142717 -0.0146181,-0.018315 -0.00576378,-0.00408268 -0.0126496,-0.00639764 -0.0206654,-0.00698425 -0.006,-0.000527559 -0.0174646,0.000448819 -0.0344606,0.00283465l-0.0186811 0.00262598zm0.265819 0.125157l-0.0574016 -0.200177 0.0404094 -0.0115866 0.0574016 0.200177 -0.0404094 0.0115866zm0.102528 -0.137807c-0.0099685,-0.018752 -0.0155433,-0.0359409 -0.0166969,-0.0516378 -0.00076378,-0.011563 0.000444882,-0.0230276 0.00371654,-0.0343189 0.00329921,-0.0112559 0.00828346,-0.0209882 0.0149764,-0.0291575 0.00887795,-0.0109843 0.0207874,-0.0203937 0.0357717,-0.0283583 0.0271024,-0.0144094 0.0532205,-0.0175394 0.0784331,-0.0093622 0.0251929,0.00812992 0.0457559,0.0271811 0.0616654,0.0571063 0.0157992,0.0297126 0.0200472,0.0572165 0.0128307,0.0825787 -0.00724016,0.0253189 -0.0243543,0.045185 -0.0513268,0.0595236 -0.0273543,0.0145472 -0.0535433,0.0177638 -0.0785354,0.00968898 -0.0250157,-0.00811417 -0.0452874,-0.0268228 -0.0608346,-0.056063zm0.0375669 -0.0215669c0.011063,0.0208031 0.0243031,0.0340276 0.0396024,0.0396732 0.0153465,0.00562598 0.0303898,0.00448819 0.0452047,-0.00338583 0.0147717,-0.00785433 0.0241063,-0.019626 0.0279173,-0.0353819 0.00379921,-0.015689 5.90551e-005,-0.034189 -0.0112756,-0.0555079 -0.0112008,-0.0210591 -0.0241811,-0.034315 -0.0389173,-0.0398228 -0.014752,-0.00544094 -0.0297953,-0.00409055 -0.0450787,0.00403543 -0.0153228,0.00814961 -0.0248543,0.0199724 -0.0286535,0.0354449 -0.00375591,0.0154528 -6.69291e-005,0.033752 0.0112008,0.0549449z"/>
  </g>
 </g>
</svg>
